<mxfile host="app.diagrams.net" modified="2021-04-27T16:51:18.909Z" agent="5.0 (Windows NT 10.0; Win64; x64) AppleWebKit/537.36 (KHTML, like Gecko) Chrome/89.0.4389.105 YaBrowser/21.3.2.193 Yowser/2.5 Safari/537.36" etag="XMhL11xxDzmUVhl93svS" version="14.6.6" type="github">
  <diagram id="aCLS4WZJCKysBMudl4zs" name="Page-1">
    <mxGraphModel dx="948" dy="528" grid="1" gridSize="10" guides="1" tooltips="1" connect="1" arrows="1" fold="1" page="1" pageScale="1" pageWidth="827" pageHeight="1169" math="0" shadow="0">
      <root>
        <mxCell id="0" />
        <mxCell id="1" parent="0" />
        <mxCell id="wSV5UhxXquQMlC8gkhKe-7" value="" style="edgeStyle=orthogonalEdgeStyle;rounded=0;orthogonalLoop=1;jettySize=auto;html=1;" edge="1" parent="1" source="wSV5UhxXquQMlC8gkhKe-1" target="wSV5UhxXquQMlC8gkhKe-2">
          <mxGeometry relative="1" as="geometry" />
        </mxCell>
        <mxCell id="wSV5UhxXquQMlC8gkhKe-1" value="НАЧАЛО" style="ellipse;whiteSpace=wrap;html=1;" vertex="1" parent="1">
          <mxGeometry x="260" y="20" width="180" height="60" as="geometry" />
        </mxCell>
        <mxCell id="wSV5UhxXquQMlC8gkhKe-8" value="" style="edgeStyle=orthogonalEdgeStyle;rounded=0;orthogonalLoop=1;jettySize=auto;html=1;" edge="1" parent="1" source="wSV5UhxXquQMlC8gkhKe-2" target="wSV5UhxXquQMlC8gkhKe-3">
          <mxGeometry relative="1" as="geometry" />
        </mxCell>
        <mxCell id="wSV5UhxXquQMlC8gkhKe-2" value="Ввод n" style="shape=parallelogram;perimeter=parallelogramPerimeter;whiteSpace=wrap;html=1;fixedSize=1;" vertex="1" parent="1">
          <mxGeometry x="260" y="110" width="180" height="60" as="geometry" />
        </mxCell>
        <mxCell id="wSV5UhxXquQMlC8gkhKe-9" value="" style="edgeStyle=orthogonalEdgeStyle;rounded=0;orthogonalLoop=1;jettySize=auto;html=1;" edge="1" parent="1" source="wSV5UhxXquQMlC8gkhKe-3" target="wSV5UhxXquQMlC8gkhKe-4">
          <mxGeometry relative="1" as="geometry" />
        </mxCell>
        <mxCell id="wSV5UhxXquQMlC8gkhKe-3" value="part1 = n * (n + 1) / 2" style="whiteSpace=wrap;html=1;" vertex="1" parent="1">
          <mxGeometry x="260" y="220" width="180" height="60" as="geometry" />
        </mxCell>
        <mxCell id="wSV5UhxXquQMlC8gkhKe-10" value="" style="edgeStyle=orthogonalEdgeStyle;rounded=0;orthogonalLoop=1;jettySize=auto;html=1;" edge="1" parent="1" source="wSV5UhxXquQMlC8gkhKe-4" target="wSV5UhxXquQMlC8gkhKe-5">
          <mxGeometry relative="1" as="geometry" />
        </mxCell>
        <mxCell id="wSV5UhxXquQMlC8gkhKe-4" value="funk(n)" style="shape=process;whiteSpace=wrap;html=1;backgroundOutline=1;" vertex="1" parent="1">
          <mxGeometry x="260" y="330" width="180" height="60" as="geometry" />
        </mxCell>
        <mxCell id="wSV5UhxXquQMlC8gkhKe-11" value="" style="edgeStyle=orthogonalEdgeStyle;rounded=0;orthogonalLoop=1;jettySize=auto;html=1;" edge="1" parent="1" source="wSV5UhxXquQMlC8gkhKe-5" target="wSV5UhxXquQMlC8gkhKe-6">
          <mxGeometry relative="1" as="geometry" />
        </mxCell>
        <mxCell id="wSV5UhxXquQMlC8gkhKe-5" value="Вывод результата funk" style="shape=parallelogram;perimeter=parallelogramPerimeter;whiteSpace=wrap;html=1;fixedSize=1;" vertex="1" parent="1">
          <mxGeometry x="260" y="440" width="180" height="60" as="geometry" />
        </mxCell>
        <mxCell id="wSV5UhxXquQMlC8gkhKe-6" value="КОНЕЦ" style="ellipse;whiteSpace=wrap;html=1;" vertex="1" parent="1">
          <mxGeometry x="260" y="554.5" width="180" height="60" as="geometry" />
        </mxCell>
        <mxCell id="wSV5UhxXquQMlC8gkhKe-18" value="" style="edgeStyle=orthogonalEdgeStyle;rounded=0;orthogonalLoop=1;jettySize=auto;html=1;" edge="1" parent="1" source="wSV5UhxXquQMlC8gkhKe-12" target="wSV5UhxXquQMlC8gkhKe-13">
          <mxGeometry relative="1" as="geometry" />
        </mxCell>
        <mxCell id="wSV5UhxXquQMlC8gkhKe-12" value="Начало funk(n)" style="ellipse;whiteSpace=wrap;html=1;" vertex="1" parent="1">
          <mxGeometry x="580" y="20" width="120" height="60" as="geometry" />
        </mxCell>
        <mxCell id="wSV5UhxXquQMlC8gkhKe-19" style="edgeStyle=orthogonalEdgeStyle;rounded=0;orthogonalLoop=1;jettySize=auto;html=1;exitX=0;exitY=0.5;exitDx=0;exitDy=0;entryX=0.591;entryY=0.016;entryDx=0;entryDy=0;entryPerimeter=0;" edge="1" parent="1" source="wSV5UhxXquQMlC8gkhKe-13" target="wSV5UhxXquQMlC8gkhKe-15">
          <mxGeometry relative="1" as="geometry" />
        </mxCell>
        <mxCell id="wSV5UhxXquQMlC8gkhKe-20" style="edgeStyle=orthogonalEdgeStyle;rounded=0;orthogonalLoop=1;jettySize=auto;html=1;exitX=1;exitY=0.5;exitDx=0;exitDy=0;entryX=0.5;entryY=0;entryDx=0;entryDy=0;" edge="1" parent="1" source="wSV5UhxXquQMlC8gkhKe-13" target="wSV5UhxXquQMlC8gkhKe-16">
          <mxGeometry relative="1" as="geometry" />
        </mxCell>
        <mxCell id="wSV5UhxXquQMlC8gkhKe-13" value="n == 1?" style="rhombus;whiteSpace=wrap;html=1;" vertex="1" parent="1">
          <mxGeometry x="580" y="100" width="120" height="70" as="geometry" />
        </mxCell>
        <mxCell id="wSV5UhxXquQMlC8gkhKe-15" value="вывод n" style="shape=parallelogram;perimeter=parallelogramPerimeter;whiteSpace=wrap;html=1;fixedSize=1;" vertex="1" parent="1">
          <mxGeometry x="490" y="190" width="120" height="40" as="geometry" />
        </mxCell>
        <mxCell id="wSV5UhxXquQMlC8gkhKe-21" value="" style="edgeStyle=orthogonalEdgeStyle;rounded=0;orthogonalLoop=1;jettySize=auto;html=1;" edge="1" parent="1" source="wSV5UhxXquQMlC8gkhKe-16" target="wSV5UhxXquQMlC8gkhKe-17">
          <mxGeometry relative="1" as="geometry" />
        </mxCell>
        <mxCell id="wSV5UhxXquQMlC8gkhKe-16" value="result = n + funk(n - 1)" style="whiteSpace=wrap;html=1;" vertex="1" parent="1">
          <mxGeometry x="707" y="190" width="143" height="40" as="geometry" />
        </mxCell>
        <mxCell id="wSV5UhxXquQMlC8gkhKe-23" value="" style="edgeStyle=orthogonalEdgeStyle;rounded=0;orthogonalLoop=1;jettySize=auto;html=1;" edge="1" parent="1" source="wSV5UhxXquQMlC8gkhKe-17" target="wSV5UhxXquQMlC8gkhKe-22">
          <mxGeometry relative="1" as="geometry" />
        </mxCell>
        <mxCell id="wSV5UhxXquQMlC8gkhKe-17" value="вывод result" style="shape=parallelogram;perimeter=parallelogramPerimeter;whiteSpace=wrap;html=1;fixedSize=1;" vertex="1" parent="1">
          <mxGeometry x="700" y="250" width="150" height="40" as="geometry" />
        </mxCell>
        <mxCell id="wSV5UhxXquQMlC8gkhKe-22" value="КОНЕЦ funk" style="ellipse;whiteSpace=wrap;html=1;" vertex="1" parent="1">
          <mxGeometry x="685" y="330" width="180" height="60" as="geometry" />
        </mxCell>
      </root>
    </mxGraphModel>
  </diagram>
</mxfile>
